<?xml version="1.0" encoding="UTF-8" standalone="no"?>
<!DOCTYPE svg PUBLIC "-//W3C//DTD SVG 1.1//EN"
 "http://www.w3.org/Graphics/SVG/1.1/DTD/svg11.dtd">
<!-- Generated by graphviz version 2.44.0 (0)
 -->
<!-- Title: G Pages: 1 -->
<svg width="408pt" height="846pt"
 viewBox="0.00 0.00 407.89 846.00" xmlns="http://www.w3.org/2000/svg" xmlns:xlink="http://www.w3.org/1999/xlink">
<g id="graph0" class="graph" transform="scale(1 1) rotate(0) translate(4 842)">
<title>G</title>
<polygon fill="white" stroke="transparent" points="-4,4 -4,-842 403.89,-842 403.89,4 -4,4"/>
<g id="clust1" class="cluster">
<title>cluster_Global</title>
<path fill="none" stroke="gray" d="M20,-8C20,-8 379.89,-8 379.89,-8 385.89,-8 391.89,-14 391.89,-20 391.89,-20 391.89,-818 391.89,-818 391.89,-824 385.89,-830 379.89,-830 379.89,-830 20,-830 20,-830 14,-830 8,-824 8,-818 8,-818 8,-20 8,-20 8,-14 14,-8 20,-8"/>
<text text-anchor="middle" x="199.94" y="-817.2" font-family="Times,serif" font-size="11.00" fill="gray">Global</text>
</g>
<g id="clust2" class="cluster">
<title>cluster_\Imperium</title>
<path fill="none" stroke="gray" d="M222.89,-16C222.89,-16 371.89,-16 371.89,-16 377.89,-16 383.89,-22 383.89,-28 383.89,-28 383.89,-790 383.89,-790 383.89,-796 377.89,-802 371.89,-802 371.89,-802 222.89,-802 222.89,-802 216.89,-802 210.89,-796 210.89,-790 210.89,-790 210.89,-28 210.89,-28 210.89,-22 216.89,-16 222.89,-16"/>
<text text-anchor="middle" x="297.39" y="-789.2" font-family="Times,serif" font-size="11.00" fill="gray">Imperium</text>
</g>
<g id="clust3" class="cluster">
<title>cluster_\Imperium\Http</title>
<path fill="none" stroke="gray" d="M230.89,-264C230.89,-264 363.89,-264 363.89,-264 369.89,-264 375.89,-270 375.89,-276 375.89,-276 375.89,-682 375.89,-682 375.89,-688 369.89,-694 363.89,-694 363.89,-694 230.89,-694 230.89,-694 224.89,-694 218.89,-688 218.89,-682 218.89,-682 218.89,-276 218.89,-276 218.89,-270 224.89,-264 230.89,-264"/>
<text text-anchor="middle" x="297.39" y="-681.2" font-family="Times,serif" font-size="11.00" fill="gray">Http</text>
</g>
<g id="clust4" class="cluster">
<title>cluster_\Imperium\Http\Request</title>
<path fill="none" stroke="gray" d="M249.39,-540C249.39,-540 345.39,-540 345.39,-540 351.39,-540 357.39,-546 357.39,-552 357.39,-552 357.39,-654 357.39,-654 357.39,-660 351.39,-666 345.39,-666 345.39,-666 249.39,-666 249.39,-666 243.39,-666 237.39,-660 237.39,-654 237.39,-654 237.39,-552 237.39,-552 237.39,-546 243.39,-540 249.39,-540"/>
<text text-anchor="middle" x="297.39" y="-653.2" font-family="Times,serif" font-size="11.00" fill="gray">Request</text>
</g>
<g id="clust5" class="cluster">
<title>cluster_\Imperium\Http\Response</title>
<path fill="none" stroke="gray" d="M238.89,-406C238.89,-406 355.89,-406 355.89,-406 361.89,-406 367.89,-412 367.89,-418 367.89,-418 367.89,-520 367.89,-520 367.89,-526 361.89,-532 355.89,-532 355.89,-532 238.89,-532 238.89,-532 232.89,-532 226.89,-526 226.89,-520 226.89,-520 226.89,-418 226.89,-418 226.89,-412 232.89,-406 238.89,-406"/>
<text text-anchor="middle" x="297.39" y="-519.2" font-family="Times,serif" font-size="11.00" fill="gray">Response</text>
</g>
<g id="clust6" class="cluster">
<title>cluster_\Imperium\Http\Parameters</title>
<path fill="none" stroke="gray" d="M252.39,-272C252.39,-272 342.39,-272 342.39,-272 348.39,-272 354.39,-278 354.39,-284 354.39,-284 354.39,-386 354.39,-386 354.39,-392 348.39,-398 342.39,-398 342.39,-398 252.39,-398 252.39,-398 246.39,-398 240.39,-392 240.39,-386 240.39,-386 240.39,-284 240.39,-284 240.39,-278 246.39,-272 252.39,-272"/>
<text text-anchor="middle" x="297.39" y="-385.2" font-family="Times,serif" font-size="11.00" fill="gray">Parameters</text>
</g>
<g id="clust7" class="cluster">
<title>cluster_\Imperium\Exception</title>
<path fill="none" stroke="gray" d="M269.39,-702C269.39,-702 325.39,-702 325.39,-702 331.39,-702 337.39,-708 337.39,-714 337.39,-714 337.39,-762 337.39,-762 337.39,-768 331.39,-774 325.39,-774 325.39,-774 269.39,-774 269.39,-774 263.39,-774 257.39,-768 257.39,-762 257.39,-762 257.39,-714 257.39,-714 257.39,-708 263.39,-702 269.39,-702"/>
<text text-anchor="middle" x="297.39" y="-761.2" font-family="Times,serif" font-size="11.00" fill="gray">Exception</text>
</g>
<g id="clust8" class="cluster">
<title>cluster_\Imperium\Database</title>
<path fill="none" stroke="gray" d="M274.39,-184C274.39,-184 320.39,-184 320.39,-184 326.39,-184 332.39,-190 332.39,-196 332.39,-196 332.39,-244 332.39,-244 332.39,-250 326.39,-256 320.39,-256 320.39,-256 274.39,-256 274.39,-256 268.39,-256 262.39,-250 262.39,-244 262.39,-244 262.39,-196 262.39,-196 262.39,-190 268.39,-184 274.39,-184"/>
<text text-anchor="middle" x="297.39" y="-243.2" font-family="Times,serif" font-size="11.00" fill="gray">Database</text>
</g>
<g id="clust9" class="cluster">
<title>cluster_\Imperium\Container</title>
<path fill="none" stroke="gray" d="M274.39,-104C274.39,-104 320.39,-104 320.39,-104 326.39,-104 332.39,-110 332.39,-116 332.39,-116 332.39,-164 332.39,-164 332.39,-170 326.39,-176 320.39,-176 320.39,-176 274.39,-176 274.39,-176 268.39,-176 262.39,-170 262.39,-164 262.39,-164 262.39,-116 262.39,-116 262.39,-110 268.39,-104 274.39,-104"/>
<text text-anchor="middle" x="297.39" y="-163.2" font-family="Times,serif" font-size="11.00" fill="gray">Container</text>
</g>
<g id="clust10" class="cluster">
<title>cluster_\Imperium\Environment</title>
<path fill="none" stroke="gray" d="M272.39,-24C272.39,-24 321.39,-24 321.39,-24 327.39,-24 333.39,-30 333.39,-36 333.39,-36 333.39,-84 333.39,-84 333.39,-90 327.39,-96 321.39,-96 321.39,-96 272.39,-96 272.39,-96 266.39,-96 260.39,-90 260.39,-84 260.39,-84 260.39,-36 260.39,-36 260.39,-30 266.39,-24 272.39,-24"/>
<text text-anchor="middle" x="296.89" y="-83.2" font-family="Times,serif" font-size="11.00" fill="gray">Environment</text>
</g>
<!-- \\Imperium\\Http\\Request\\ServerRequest -->
<g id="node1" class="node">
<title>\\Imperium\\Http\\Request\\ServerRequest</title>
<polygon fill="none" stroke="black" points="349.39,-638 245.39,-638 245.39,-602 349.39,-602 349.39,-638"/>
<text text-anchor="middle" x="297.39" y="-617.2" font-family="Courier,monospace" font-size="11.00">ServerRequest</text>
</g>
<!-- \\Imperium\\Http\\Request\\Request -->
<g id="node2" class="node">
<title>\\Imperium\\Http\\Request\\Request</title>
<polygon fill="none" stroke="black" points="329.39,-584 265.39,-584 265.39,-548 329.39,-548 329.39,-584"/>
<text text-anchor="middle" x="297.39" y="-563.2" font-family="Courier,monospace" font-size="11.00">Request</text>
</g>
<!-- \\Imperium\\Http\\Response\\Response -->
<g id="node3" class="node">
<title>\\Imperium\\Http\\Response\\Response</title>
<polygon fill="none" stroke="black" points="332.89,-504 261.89,-504 261.89,-468 332.89,-468 332.89,-504"/>
<text text-anchor="middle" x="297.39" y="-483.2" font-family="Courier,monospace" font-size="11.00">Response</text>
</g>
<!-- \\Imperium\\Http\\Response\\RedirectResponse -->
<g id="node4" class="node">
<title>\\Imperium\\Http\\Response\\RedirectResponse</title>
<polygon fill="none" stroke="black" points="359.89,-450 234.89,-450 234.89,-414 359.89,-414 359.89,-450"/>
<text text-anchor="middle" x="297.39" y="-429.2" font-family="Courier,monospace" font-size="11.00">RedirectResponse</text>
</g>
<!-- \\Imperium\\Http\\Parameters\\UploadedFile -->
<g id="node5" class="node">
<title>\\Imperium\\Http\\Parameters\\UploadedFile</title>
<polygon fill="none" stroke="black" points="346.39,-370 248.39,-370 248.39,-334 346.39,-334 346.39,-370"/>
<text text-anchor="middle" x="297.39" y="-349.2" font-family="Courier,monospace" font-size="11.00">UploadedFile</text>
</g>
<!-- \\Imperium\\Http\\Parameters\\Bag -->
<g id="node6" class="node">
<title>\\Imperium\\Http\\Parameters\\Bag</title>
<polygon fill="none" stroke="black" points="324.39,-316 270.39,-316 270.39,-280 324.39,-280 324.39,-316"/>
<text text-anchor="middle" x="297.39" y="-295.2" font-family="Courier,monospace" font-size="11.00">Bag</text>
</g>
<!-- IteratorAggregate -->
<g id="node12" class="node">
<title>IteratorAggregate</title>
<ellipse fill="none" stroke="black" cx="89.44" cy="-271" rx="73.39" ry="18"/>
<text text-anchor="middle" x="89.44" y="-267.3" font-family="Times,serif" font-size="14.00" fill="gray">IteratorAggregate</text>
</g>
<!-- \\Imperium\\Http\\Parameters\\Bag&#45;&gt;IteratorAggregate -->
<g id="edge2" class="edge">
<title>\\Imperium\\Http\\Parameters\\Bag&#45;&gt;IteratorAggregate</title>
<path fill="none" stroke="black" stroke-dasharray="1,5" d="M270.3,-294.58C243.89,-291.12 201.79,-285.6 164.96,-280.77"/>
<polygon fill="none" stroke="black" points="165.1,-277.26 154.73,-279.43 164.19,-284.2 165.1,-277.26"/>
</g>
<!-- Countable -->
<g id="node13" class="node">
<title>Countable</title>
<ellipse fill="none" stroke="black" cx="89.44" cy="-325" rx="46.59" ry="18"/>
<text text-anchor="middle" x="89.44" y="-321.3" font-family="Times,serif" font-size="14.00" fill="gray">Countable</text>
</g>
<!-- \\Imperium\\Http\\Parameters\\Bag&#45;&gt;Countable -->
<g id="edge3" class="edge">
<title>\\Imperium\\Http\\Parameters\\Bag&#45;&gt;Countable</title>
<path fill="none" stroke="black" stroke-dasharray="1,5" d="M270.3,-301.42C238.67,-305.57 184.56,-312.66 143.93,-317.99"/>
<polygon fill="none" stroke="black" points="143.37,-314.53 133.91,-319.3 144.28,-321.47 143.37,-314.53"/>
</g>
<!-- \\Imperium\\Exception\\Kedavra -->
<g id="node7" class="node">
<title>\\Imperium\\Exception\\Kedavra</title>
<polygon fill="none" stroke="black" points="329.39,-746 265.39,-746 265.39,-710 329.39,-710 329.39,-746"/>
<text text-anchor="middle" x="297.39" y="-725.2" font-family="Courier,monospace" font-size="11.00">Kedavra</text>
</g>
<!-- Exception -->
<g id="node11" class="node">
<title>Exception</title>
<ellipse fill="none" stroke="black" cx="89.44" cy="-728" rx="46.29" ry="18"/>
<text text-anchor="middle" x="89.44" y="-724.3" font-family="Times,serif" font-size="14.00" fill="gray">Exception</text>
</g>
<!-- \\Imperium\\Exception\\Kedavra&#45;&gt;Exception -->
<g id="edge1" class="edge">
<title>\\Imperium\\Exception\\Kedavra&#45;&gt;Exception</title>
<path fill="none" stroke="black" d="M265.11,-728C233.64,-728 184.42,-728 146.25,-728"/>
<polygon fill="none" stroke="black" points="145.79,-724.5 135.79,-728 145.79,-731.5 145.79,-724.5"/>
</g>
<!-- \\Imperium\\Database\\DB -->
<g id="node8" class="node">
<title>\\Imperium\\Database\\DB</title>
<polygon fill="none" stroke="black" points="324.39,-228 270.39,-228 270.39,-192 324.39,-192 324.39,-228"/>
<text text-anchor="middle" x="297.39" y="-207.2" font-family="Courier,monospace" font-size="11.00">DB</text>
</g>
<!-- \\Imperium\\Container\\Ioc -->
<g id="node9" class="node">
<title>\\Imperium\\Container\\Ioc</title>
<polygon fill="none" stroke="black" points="324.39,-148 270.39,-148 270.39,-112 324.39,-112 324.39,-148"/>
<text text-anchor="middle" x="297.39" y="-127.2" font-family="Courier,monospace" font-size="11.00">Ioc</text>
</g>
<!-- \\Imperium\\Environment\\Env -->
<g id="node10" class="node">
<title>\\Imperium\\Environment\\Env</title>
<polygon fill="none" stroke="black" points="324.39,-68 270.39,-68 270.39,-32 324.39,-32 324.39,-68"/>
<text text-anchor="middle" x="297.39" y="-47.2" font-family="Courier,monospace" font-size="11.00">Env</text>
</g>
</g>
</svg>
