<?xml version="1.0" encoding="UTF-8" standalone="no"?>
<!DOCTYPE svg PUBLIC "-//W3C//DTD SVG 1.1//EN"
 "http://www.w3.org/Graphics/SVG/1.1/DTD/svg11.dtd">
<!-- Generated by graphviz version 2.44.0 (0)
 -->
<!-- Title: G Pages: 1 -->
<svg width="381pt" height="544pt"
 viewBox="0.00 0.00 380.89 544.00" xmlns="http://www.w3.org/2000/svg" xmlns:xlink="http://www.w3.org/1999/xlink">
<g id="graph0" class="graph" transform="scale(1 1) rotate(0) translate(4 540)">
<title>G</title>
<polygon fill="white" stroke="transparent" points="-4,4 -4,-540 376.89,-540 376.89,4 -4,4"/>
<g id="clust1" class="cluster">
<title>cluster_Global</title>
<path fill="none" stroke="gray" d="M20,-8C20,-8 352.89,-8 352.89,-8 358.89,-8 364.89,-14 364.89,-20 364.89,-20 364.89,-516 364.89,-516 364.89,-522 358.89,-528 352.89,-528 352.89,-528 20,-528 20,-528 14,-528 8,-522 8,-516 8,-516 8,-20 8,-20 8,-14 14,-8 20,-8"/>
<text text-anchor="middle" x="186.44" y="-515.2" font-family="Times,serif" font-size="11.00" fill="gray">Global</text>
</g>
<g id="clust2" class="cluster">
<title>cluster_\Imperium</title>
<path fill="none" stroke="gray" d="M222.89,-16C222.89,-16 344.89,-16 344.89,-16 350.89,-16 356.89,-22 356.89,-28 356.89,-28 356.89,-488 356.89,-488 356.89,-494 350.89,-500 344.89,-500 344.89,-500 222.89,-500 222.89,-500 216.89,-500 210.89,-494 210.89,-488 210.89,-488 210.89,-28 210.89,-28 210.89,-22 216.89,-16 222.89,-16"/>
<text text-anchor="middle" x="283.89" y="-487.2" font-family="Times,serif" font-size="11.00" fill="gray">Imperium</text>
</g>
<g id="clust3" class="cluster">
<title>cluster_\Imperium\Http</title>
<path fill="none" stroke="gray" d="M230.89,-184C230.89,-184 336.89,-184 336.89,-184 342.89,-184 348.89,-190 348.89,-196 348.89,-196 348.89,-380 348.89,-380 348.89,-386 342.89,-392 336.89,-392 336.89,-392 230.89,-392 230.89,-392 224.89,-392 218.89,-386 218.89,-380 218.89,-380 218.89,-196 218.89,-196 218.89,-190 224.89,-184 230.89,-184"/>
<text text-anchor="middle" x="283.89" y="-379.2" font-family="Times,serif" font-size="11.00" fill="gray">Http</text>
</g>
<g id="clust4" class="cluster">
<title>cluster_\Imperium\Http\Parameters</title>
<path fill="none" stroke="gray" d="M238.89,-238C238.89,-238 328.89,-238 328.89,-238 334.89,-238 340.89,-244 340.89,-250 340.89,-250 340.89,-352 340.89,-352 340.89,-358 334.89,-364 328.89,-364 328.89,-364 238.89,-364 238.89,-364 232.89,-364 226.89,-358 226.89,-352 226.89,-352 226.89,-250 226.89,-250 226.89,-244 232.89,-238 238.89,-238"/>
<text text-anchor="middle" x="283.89" y="-351.2" font-family="Times,serif" font-size="11.00" fill="gray">Parameters</text>
</g>
<g id="clust5" class="cluster">
<title>cluster_\Imperium\Exception</title>
<path fill="none" stroke="gray" d="M255.89,-400C255.89,-400 311.89,-400 311.89,-400 317.89,-400 323.89,-406 323.89,-412 323.89,-412 323.89,-460 323.89,-460 323.89,-466 317.89,-472 311.89,-472 311.89,-472 255.89,-472 255.89,-472 249.89,-472 243.89,-466 243.89,-460 243.89,-460 243.89,-412 243.89,-412 243.89,-406 249.89,-400 255.89,-400"/>
<text text-anchor="middle" x="283.89" y="-459.2" font-family="Times,serif" font-size="11.00" fill="gray">Exception</text>
</g>
<g id="clust6" class="cluster">
<title>cluster_\Imperium\Database</title>
<path fill="none" stroke="gray" d="M260.89,-104C260.89,-104 306.89,-104 306.89,-104 312.89,-104 318.89,-110 318.89,-116 318.89,-116 318.89,-164 318.89,-164 318.89,-170 312.89,-176 306.89,-176 306.89,-176 260.89,-176 260.89,-176 254.89,-176 248.89,-170 248.89,-164 248.89,-164 248.89,-116 248.89,-116 248.89,-110 254.89,-104 260.89,-104"/>
<text text-anchor="middle" x="283.89" y="-163.2" font-family="Times,serif" font-size="11.00" fill="gray">Database</text>
</g>
<g id="clust7" class="cluster">
<title>cluster_\Imperium\Environment</title>
<path fill="none" stroke="gray" d="M258.89,-24C258.89,-24 307.89,-24 307.89,-24 313.89,-24 319.89,-30 319.89,-36 319.89,-36 319.89,-84 319.89,-84 319.89,-90 313.89,-96 307.89,-96 307.89,-96 258.89,-96 258.89,-96 252.89,-96 246.89,-90 246.89,-84 246.89,-84 246.89,-36 246.89,-36 246.89,-30 252.89,-24 258.89,-24"/>
<text text-anchor="middle" x="283.39" y="-83.2" font-family="Times,serif" font-size="11.00" fill="gray">Environment</text>
</g>
<!-- \\Imperium\\Http\\Parameters\\UploadedFile -->
<g id="node1" class="node">
<title>\\Imperium\\Http\\Parameters\\UploadedFile</title>
<polygon fill="none" stroke="black" points="332.89,-336 234.89,-336 234.89,-300 332.89,-300 332.89,-336"/>
<text text-anchor="middle" x="283.89" y="-315.2" font-family="Courier,monospace" font-size="11.00">UploadedFile</text>
</g>
<!-- \\Imperium\\Http\\Parameters\\Bag -->
<g id="node2" class="node">
<title>\\Imperium\\Http\\Parameters\\Bag</title>
<polygon fill="none" stroke="black" points="310.89,-282 256.89,-282 256.89,-246 310.89,-246 310.89,-282"/>
<text text-anchor="middle" x="283.89" y="-261.2" font-family="Courier,monospace" font-size="11.00">Bag</text>
</g>
<!-- IteratorAggregate -->
<g id="node8" class="node">
<title>IteratorAggregate</title>
<ellipse fill="none" stroke="black" cx="89.44" cy="-237" rx="73.39" ry="18"/>
<text text-anchor="middle" x="89.44" y="-233.3" font-family="Times,serif" font-size="14.00" fill="gray">IteratorAggregate</text>
</g>
<!-- \\Imperium\\Http\\Parameters\\Bag&#45;&gt;IteratorAggregate -->
<g id="edge2" class="edge">
<title>\\Imperium\\Http\\Parameters\\Bag&#45;&gt;IteratorAggregate</title>
<path fill="none" stroke="black" stroke-dasharray="1,5" d="M256.53,-260.3C232.65,-256.95 196.31,-251.85 163.7,-247.28"/>
<polygon fill="none" stroke="black" points="164.11,-243.8 153.72,-245.88 163.14,-250.73 164.11,-243.8"/>
</g>
<!-- Countable -->
<g id="node9" class="node">
<title>Countable</title>
<ellipse fill="none" stroke="black" cx="89.44" cy="-291" rx="46.59" ry="18"/>
<text text-anchor="middle" x="89.44" y="-287.3" font-family="Times,serif" font-size="14.00" fill="gray">Countable</text>
</g>
<!-- \\Imperium\\Http\\Parameters\\Bag&#45;&gt;Countable -->
<g id="edge3" class="edge">
<title>\\Imperium\\Http\\Parameters\\Bag&#45;&gt;Countable</title>
<path fill="none" stroke="black" stroke-dasharray="1,5" d="M256.53,-267.7C227.65,-271.75 180.53,-278.36 143.85,-283.51"/>
<polygon fill="none" stroke="black" points="143.22,-280.06 133.8,-284.92 144.19,-286.99 143.22,-280.06"/>
</g>
<!-- \\Imperium\\Http\\Request -->
<g id="node3" class="node">
<title>\\Imperium\\Http\\Request</title>
<polygon fill="none" stroke="black" points="315.89,-228 251.89,-228 251.89,-192 315.89,-192 315.89,-228"/>
<text text-anchor="middle" x="283.89" y="-207.2" font-family="Courier,monospace" font-size="11.00">Request</text>
</g>
<!-- \\Imperium\\Exception\\Kedavra -->
<g id="node4" class="node">
<title>\\Imperium\\Exception\\Kedavra</title>
<polygon fill="none" stroke="black" points="315.89,-444 251.89,-444 251.89,-408 315.89,-408 315.89,-444"/>
<text text-anchor="middle" x="283.89" y="-423.2" font-family="Courier,monospace" font-size="11.00">Kedavra</text>
</g>
<!-- Exception -->
<g id="node7" class="node">
<title>Exception</title>
<ellipse fill="none" stroke="black" cx="89.44" cy="-426" rx="46.29" ry="18"/>
<text text-anchor="middle" x="89.44" y="-422.3" font-family="Times,serif" font-size="14.00" fill="gray">Exception</text>
</g>
<!-- \\Imperium\\Exception\\Kedavra&#45;&gt;Exception -->
<g id="edge1" class="edge">
<title>\\Imperium\\Exception\\Kedavra&#45;&gt;Exception</title>
<path fill="none" stroke="black" d="M251.54,-426C223.07,-426 180.41,-426 146.14,-426"/>
<polygon fill="none" stroke="black" points="145.8,-422.5 135.8,-426 145.8,-429.5 145.8,-422.5"/>
</g>
<!-- \\Imperium\\Database\\DB -->
<g id="node5" class="node">
<title>\\Imperium\\Database\\DB</title>
<polygon fill="none" stroke="black" points="310.89,-148 256.89,-148 256.89,-112 310.89,-112 310.89,-148"/>
<text text-anchor="middle" x="283.89" y="-127.2" font-family="Courier,monospace" font-size="11.00">DB</text>
</g>
<!-- \\Imperium\\Environment\\Env -->
<g id="node6" class="node">
<title>\\Imperium\\Environment\\Env</title>
<polygon fill="none" stroke="black" points="310.89,-68 256.89,-68 256.89,-32 310.89,-32 310.89,-68"/>
<text text-anchor="middle" x="283.89" y="-47.2" font-family="Courier,monospace" font-size="11.00">Env</text>
</g>
</g>
</svg>
