<?xml version="1.0" encoding="UTF-8" standalone="no"?>
<!DOCTYPE svg PUBLIC "-//W3C//DTD SVG 1.1//EN"
 "http://www.w3.org/Graphics/SVG/1.1/DTD/svg11.dtd">
<!-- Generated by graphviz version 2.44.0 (0)
 -->
<!-- Title: G Pages: 1 -->
<svg width="408pt" height="766pt"
 viewBox="0.00 0.00 407.89 766.00" xmlns="http://www.w3.org/2000/svg" xmlns:xlink="http://www.w3.org/1999/xlink">
<g id="graph0" class="graph" transform="scale(1 1) rotate(0) translate(4 762)">
<title>G</title>
<polygon fill="white" stroke="transparent" points="-4,4 -4,-762 403.89,-762 403.89,4 -4,4"/>
<g id="clust1" class="cluster">
<title>cluster_Global</title>
<path fill="none" stroke="gray" d="M20,-8C20,-8 379.89,-8 379.89,-8 385.89,-8 391.89,-14 391.89,-20 391.89,-20 391.89,-738 391.89,-738 391.89,-744 385.89,-750 379.89,-750 379.89,-750 20,-750 20,-750 14,-750 8,-744 8,-738 8,-738 8,-20 8,-20 8,-14 14,-8 20,-8"/>
<text text-anchor="middle" x="199.94" y="-737.2" font-family="Times,serif" font-size="11.00" fill="gray">Global</text>
</g>
<g id="clust2" class="cluster">
<title>cluster_\Imperium</title>
<path fill="none" stroke="gray" d="M222.89,-16C222.89,-16 371.89,-16 371.89,-16 377.89,-16 383.89,-22 383.89,-28 383.89,-28 383.89,-710 383.89,-710 383.89,-716 377.89,-722 371.89,-722 371.89,-722 222.89,-722 222.89,-722 216.89,-722 210.89,-716 210.89,-710 210.89,-710 210.89,-28 210.89,-28 210.89,-22 216.89,-16 222.89,-16"/>
<text text-anchor="middle" x="297.39" y="-709.2" font-family="Times,serif" font-size="11.00" fill="gray">Imperium</text>
</g>
<g id="clust3" class="cluster">
<title>cluster_\Imperium\Http</title>
<path fill="none" stroke="gray" d="M230.89,-184C230.89,-184 363.89,-184 363.89,-184 369.89,-184 375.89,-190 375.89,-196 375.89,-196 375.89,-602 375.89,-602 375.89,-608 369.89,-614 363.89,-614 363.89,-614 230.89,-614 230.89,-614 224.89,-614 218.89,-608 218.89,-602 218.89,-602 218.89,-196 218.89,-196 218.89,-190 224.89,-184 230.89,-184"/>
<text text-anchor="middle" x="297.39" y="-601.2" font-family="Times,serif" font-size="11.00" fill="gray">Http</text>
</g>
<g id="clust4" class="cluster">
<title>cluster_\Imperium\Http\Request</title>
<path fill="none" stroke="gray" d="M249.39,-460C249.39,-460 345.39,-460 345.39,-460 351.39,-460 357.39,-466 357.39,-472 357.39,-472 357.39,-574 357.39,-574 357.39,-580 351.39,-586 345.39,-586 345.39,-586 249.39,-586 249.39,-586 243.39,-586 237.39,-580 237.39,-574 237.39,-574 237.39,-472 237.39,-472 237.39,-466 243.39,-460 249.39,-460"/>
<text text-anchor="middle" x="297.39" y="-573.2" font-family="Times,serif" font-size="11.00" fill="gray">Request</text>
</g>
<g id="clust5" class="cluster">
<title>cluster_\Imperium\Http\Response</title>
<path fill="none" stroke="gray" d="M238.89,-326C238.89,-326 355.89,-326 355.89,-326 361.89,-326 367.89,-332 367.89,-338 367.89,-338 367.89,-440 367.89,-440 367.89,-446 361.89,-452 355.89,-452 355.89,-452 238.89,-452 238.89,-452 232.89,-452 226.89,-446 226.89,-440 226.89,-440 226.89,-338 226.89,-338 226.89,-332 232.89,-326 238.89,-326"/>
<text text-anchor="middle" x="297.39" y="-439.2" font-family="Times,serif" font-size="11.00" fill="gray">Response</text>
</g>
<g id="clust6" class="cluster">
<title>cluster_\Imperium\Http\Parameters</title>
<path fill="none" stroke="gray" d="M252.39,-192C252.39,-192 342.39,-192 342.39,-192 348.39,-192 354.39,-198 354.39,-204 354.39,-204 354.39,-306 354.39,-306 354.39,-312 348.39,-318 342.39,-318 342.39,-318 252.39,-318 252.39,-318 246.39,-318 240.39,-312 240.39,-306 240.39,-306 240.39,-204 240.39,-204 240.39,-198 246.39,-192 252.39,-192"/>
<text text-anchor="middle" x="297.39" y="-305.2" font-family="Times,serif" font-size="11.00" fill="gray">Parameters</text>
</g>
<g id="clust7" class="cluster">
<title>cluster_\Imperium\Exception</title>
<path fill="none" stroke="gray" d="M269.39,-622C269.39,-622 325.39,-622 325.39,-622 331.39,-622 337.39,-628 337.39,-634 337.39,-634 337.39,-682 337.39,-682 337.39,-688 331.39,-694 325.39,-694 325.39,-694 269.39,-694 269.39,-694 263.39,-694 257.39,-688 257.39,-682 257.39,-682 257.39,-634 257.39,-634 257.39,-628 263.39,-622 269.39,-622"/>
<text text-anchor="middle" x="297.39" y="-681.2" font-family="Times,serif" font-size="11.00" fill="gray">Exception</text>
</g>
<g id="clust8" class="cluster">
<title>cluster_\Imperium\Database</title>
<path fill="none" stroke="gray" d="M274.39,-104C274.39,-104 320.39,-104 320.39,-104 326.39,-104 332.39,-110 332.39,-116 332.39,-116 332.39,-164 332.39,-164 332.39,-170 326.39,-176 320.39,-176 320.39,-176 274.39,-176 274.39,-176 268.39,-176 262.39,-170 262.39,-164 262.39,-164 262.39,-116 262.39,-116 262.39,-110 268.39,-104 274.39,-104"/>
<text text-anchor="middle" x="297.39" y="-163.2" font-family="Times,serif" font-size="11.00" fill="gray">Database</text>
</g>
<g id="clust9" class="cluster">
<title>cluster_\Imperium\Environment</title>
<path fill="none" stroke="gray" d="M272.39,-24C272.39,-24 321.39,-24 321.39,-24 327.39,-24 333.39,-30 333.39,-36 333.39,-36 333.39,-84 333.39,-84 333.39,-90 327.39,-96 321.39,-96 321.39,-96 272.39,-96 272.39,-96 266.39,-96 260.39,-90 260.39,-84 260.39,-84 260.39,-36 260.39,-36 260.39,-30 266.39,-24 272.39,-24"/>
<text text-anchor="middle" x="296.89" y="-83.2" font-family="Times,serif" font-size="11.00" fill="gray">Environment</text>
</g>
<!-- \\Imperium\\Http\\Request\\ServerRequest -->
<g id="node1" class="node">
<title>\\Imperium\\Http\\Request\\ServerRequest</title>
<polygon fill="none" stroke="black" points="349.39,-558 245.39,-558 245.39,-522 349.39,-522 349.39,-558"/>
<text text-anchor="middle" x="297.39" y="-537.2" font-family="Courier,monospace" font-size="11.00">ServerRequest</text>
</g>
<!-- \\Imperium\\Http\\Request\\Request -->
<g id="node2" class="node">
<title>\\Imperium\\Http\\Request\\Request</title>
<polygon fill="none" stroke="black" points="329.39,-504 265.39,-504 265.39,-468 329.39,-468 329.39,-504"/>
<text text-anchor="middle" x="297.39" y="-483.2" font-family="Courier,monospace" font-size="11.00">Request</text>
</g>
<!-- \\Imperium\\Http\\Response\\Response -->
<g id="node3" class="node">
<title>\\Imperium\\Http\\Response\\Response</title>
<polygon fill="none" stroke="black" points="332.89,-424 261.89,-424 261.89,-388 332.89,-388 332.89,-424"/>
<text text-anchor="middle" x="297.39" y="-403.2" font-family="Courier,monospace" font-size="11.00">Response</text>
</g>
<!-- \\Imperium\\Http\\Response\\RedirectResponse -->
<g id="node4" class="node">
<title>\\Imperium\\Http\\Response\\RedirectResponse</title>
<polygon fill="none" stroke="black" points="359.89,-370 234.89,-370 234.89,-334 359.89,-334 359.89,-370"/>
<text text-anchor="middle" x="297.39" y="-349.2" font-family="Courier,monospace" font-size="11.00">RedirectResponse</text>
</g>
<!-- \\Imperium\\Http\\Parameters\\UploadedFile -->
<g id="node5" class="node">
<title>\\Imperium\\Http\\Parameters\\UploadedFile</title>
<polygon fill="none" stroke="black" points="346.39,-290 248.39,-290 248.39,-254 346.39,-254 346.39,-290"/>
<text text-anchor="middle" x="297.39" y="-269.2" font-family="Courier,monospace" font-size="11.00">UploadedFile</text>
</g>
<!-- \\Imperium\\Http\\Parameters\\Bag -->
<g id="node6" class="node">
<title>\\Imperium\\Http\\Parameters\\Bag</title>
<polygon fill="none" stroke="black" points="324.39,-236 270.39,-236 270.39,-200 324.39,-200 324.39,-236"/>
<text text-anchor="middle" x="297.39" y="-215.2" font-family="Courier,monospace" font-size="11.00">Bag</text>
</g>
<!-- IteratorAggregate -->
<g id="node11" class="node">
<title>IteratorAggregate</title>
<ellipse fill="none" stroke="black" cx="89.44" cy="-191" rx="73.39" ry="18"/>
<text text-anchor="middle" x="89.44" y="-187.3" font-family="Times,serif" font-size="14.00" fill="gray">IteratorAggregate</text>
</g>
<!-- \\Imperium\\Http\\Parameters\\Bag&#45;&gt;IteratorAggregate -->
<g id="edge2" class="edge">
<title>\\Imperium\\Http\\Parameters\\Bag&#45;&gt;IteratorAggregate</title>
<path fill="none" stroke="black" stroke-dasharray="1,5" d="M270.3,-214.58C243.89,-211.12 201.79,-205.6 164.96,-200.77"/>
<polygon fill="none" stroke="black" points="165.1,-197.26 154.73,-199.43 164.19,-204.2 165.1,-197.26"/>
</g>
<!-- Countable -->
<g id="node12" class="node">
<title>Countable</title>
<ellipse fill="none" stroke="black" cx="89.44" cy="-245" rx="46.59" ry="18"/>
<text text-anchor="middle" x="89.44" y="-241.3" font-family="Times,serif" font-size="14.00" fill="gray">Countable</text>
</g>
<!-- \\Imperium\\Http\\Parameters\\Bag&#45;&gt;Countable -->
<g id="edge3" class="edge">
<title>\\Imperium\\Http\\Parameters\\Bag&#45;&gt;Countable</title>
<path fill="none" stroke="black" stroke-dasharray="1,5" d="M270.3,-221.42C238.67,-225.57 184.56,-232.66 143.93,-237.99"/>
<polygon fill="none" stroke="black" points="143.37,-234.53 133.91,-239.3 144.28,-241.47 143.37,-234.53"/>
</g>
<!-- \\Imperium\\Exception\\Kedavra -->
<g id="node7" class="node">
<title>\\Imperium\\Exception\\Kedavra</title>
<polygon fill="none" stroke="black" points="329.39,-666 265.39,-666 265.39,-630 329.39,-630 329.39,-666"/>
<text text-anchor="middle" x="297.39" y="-645.2" font-family="Courier,monospace" font-size="11.00">Kedavra</text>
</g>
<!-- Exception -->
<g id="node10" class="node">
<title>Exception</title>
<ellipse fill="none" stroke="black" cx="89.44" cy="-648" rx="46.29" ry="18"/>
<text text-anchor="middle" x="89.44" y="-644.3" font-family="Times,serif" font-size="14.00" fill="gray">Exception</text>
</g>
<!-- \\Imperium\\Exception\\Kedavra&#45;&gt;Exception -->
<g id="edge1" class="edge">
<title>\\Imperium\\Exception\\Kedavra&#45;&gt;Exception</title>
<path fill="none" stroke="black" d="M265.11,-648C233.64,-648 184.42,-648 146.25,-648"/>
<polygon fill="none" stroke="black" points="145.79,-644.5 135.79,-648 145.79,-651.5 145.79,-644.5"/>
</g>
<!-- \\Imperium\\Database\\DB -->
<g id="node8" class="node">
<title>\\Imperium\\Database\\DB</title>
<polygon fill="none" stroke="black" points="324.39,-148 270.39,-148 270.39,-112 324.39,-112 324.39,-148"/>
<text text-anchor="middle" x="297.39" y="-127.2" font-family="Courier,monospace" font-size="11.00">DB</text>
</g>
<!-- \\Imperium\\Environment\\Env -->
<g id="node9" class="node">
<title>\\Imperium\\Environment\\Env</title>
<polygon fill="none" stroke="black" points="324.39,-68 270.39,-68 270.39,-32 324.39,-32 324.39,-68"/>
<text text-anchor="middle" x="297.39" y="-47.2" font-family="Courier,monospace" font-size="11.00">Env</text>
</g>
</g>
</svg>
