<?xml version="1.0" encoding="UTF-8" standalone="no"?>
<!DOCTYPE svg PUBLIC "-//W3C//DTD SVG 1.1//EN"
 "http://www.w3.org/Graphics/SVG/1.1/DTD/svg11.dtd">
<!-- Generated by graphviz version 2.44.0 (0)
 -->
<!-- Title: G Pages: 1 -->
<svg width="820pt" height="1338pt"
 viewBox="0.00 0.00 819.89 1338.00" xmlns="http://www.w3.org/2000/svg" xmlns:xlink="http://www.w3.org/1999/xlink">
<g id="graph0" class="graph" transform="scale(1 1) rotate(0) translate(4 1334)">
<title>G</title>
<polygon fill="white" stroke="transparent" points="-4,4 -4,-1334 815.89,-1334 815.89,4 -4,4"/>
<g id="clust1" class="cluster">
<title>cluster_Global</title>
<path fill="none" stroke="gray" d="M20,-8C20,-8 791.89,-8 791.89,-8 797.89,-8 803.89,-14 803.89,-20 803.89,-20 803.89,-1310 803.89,-1310 803.89,-1316 797.89,-1322 791.89,-1322 791.89,-1322 20,-1322 20,-1322 14,-1322 8,-1316 8,-1310 8,-1310 8,-20 8,-20 8,-14 14,-8 20,-8"/>
<text text-anchor="middle" x="405.94" y="-1309.2" font-family="Times,serif" font-size="11.00" fill="gray">Global</text>
</g>
<g id="clust2" class="cluster">
<title>cluster_\Imperium</title>
<path fill="none" stroke="gray" d="M28,-16C28,-16 783.89,-16 783.89,-16 789.89,-16 795.89,-22 795.89,-28 795.89,-28 795.89,-988 795.89,-988 795.89,-994 789.89,-1000 783.89,-1000 783.89,-1000 28,-1000 28,-1000 22,-1000 16,-994 16,-988 16,-988 16,-28 16,-28 16,-22 22,-16 28,-16"/>
<text text-anchor="middle" x="405.94" y="-987.2" font-family="Times,serif" font-size="11.00" fill="gray">Imperium</text>
</g>
<g id="clust3" class="cluster">
<title>cluster_\Imperium\Database</title>
<path fill="none" stroke="gray" d="M36,-264C36,-264 741.89,-264 741.89,-264 747.89,-264 753.89,-270 753.89,-276 753.89,-276 753.89,-360 753.89,-360 753.89,-366 747.89,-372 741.89,-372 741.89,-372 36,-372 36,-372 30,-372 24,-366 24,-360 24,-360 24,-276 24,-276 24,-270 30,-264 36,-264"/>
<text text-anchor="middle" x="388.94" y="-359.2" font-family="Times,serif" font-size="11.00" fill="gray">Database</text>
</g>
<g id="clust4" class="cluster">
<title>cluster_\Imperium\Database\Model</title>
<path fill="none" stroke="gray" d="M478.44,-272C478.44,-272 524.44,-272 524.44,-272 530.44,-272 536.44,-278 536.44,-284 536.44,-284 536.44,-332 536.44,-332 536.44,-338 530.44,-344 524.44,-344 524.44,-344 478.44,-344 478.44,-344 472.44,-344 466.44,-338 466.44,-332 466.44,-332 466.44,-284 466.44,-284 466.44,-278 472.44,-272 478.44,-272"/>
<text text-anchor="middle" x="501.44" y="-331.2" font-family="Times,serif" font-size="11.00" fill="gray">Model</text>
</g>
<g id="clust5" class="cluster">
<title>cluster_\Imperium\Database\Connection</title>
<path fill="none" stroke="gray" d="M44,-272C44,-272 100,-272 100,-272 106,-272 112,-278 112,-284 112,-284 112,-332 112,-332 112,-338 106,-344 100,-344 100,-344 44,-344 44,-344 38,-344 32,-338 32,-332 32,-332 32,-284 32,-284 32,-278 38,-272 44,-272"/>
<text text-anchor="middle" x="72" y="-331.2" font-family="Times,serif" font-size="11.00" fill="gray">Connection</text>
</g>
<g id="clust6" class="cluster">
<title>cluster_\Imperium\Database\Found</title>
<path fill="none" stroke="gray" d="M684.89,-272C684.89,-272 733.89,-272 733.89,-272 739.89,-272 745.89,-278 745.89,-284 745.89,-284 745.89,-332 745.89,-332 745.89,-338 739.89,-344 733.89,-344 733.89,-344 684.89,-344 684.89,-344 678.89,-344 672.89,-338 672.89,-332 672.89,-332 672.89,-284 672.89,-284 672.89,-278 678.89,-272 684.89,-272"/>
<text text-anchor="middle" x="709.39" y="-331.2" font-family="Times,serif" font-size="11.00" fill="gray">Found</text>
</g>
<g id="clust7" class="cluster">
<title>cluster_\Imperium\Database\Query</title>
<path fill="none" stroke="gray" d="M306,-272C306,-272 352,-272 352,-272 358,-272 364,-278 364,-284 364,-284 364,-332 364,-332 364,-338 358,-344 352,-344 352,-344 306,-344 306,-344 300,-344 294,-338 294,-332 294,-332 294,-284 294,-284 294,-278 300,-272 306,-272"/>
<text text-anchor="middle" x="329" y="-331.2" font-family="Times,serif" font-size="11.00" fill="gray">Query</text>
</g>
<g id="clust8" class="cluster">
<title>cluster_\Imperium\Database\Table</title>
<path fill="none" stroke="gray" d="M180,-272C180,-272 226,-272 226,-272 232,-272 238,-278 238,-284 238,-284 238,-332 238,-332 238,-338 232,-344 226,-344 226,-344 180,-344 180,-344 174,-344 168,-338 168,-332 168,-332 168,-284 168,-284 168,-278 174,-272 180,-272"/>
<text text-anchor="middle" x="203" y="-331.2" font-family="Times,serif" font-size="11.00" fill="gray">Table</text>
</g>
<g id="clust9" class="cluster">
<title>cluster_\Imperium\Http</title>
<path fill="none" stroke="gray" d="M642.89,-380C642.89,-380 775.89,-380 775.89,-380 781.89,-380 787.89,-386 787.89,-392 787.89,-392 787.89,-798 787.89,-798 787.89,-804 781.89,-810 775.89,-810 775.89,-810 642.89,-810 642.89,-810 636.89,-810 630.89,-804 630.89,-798 630.89,-798 630.89,-392 630.89,-392 630.89,-386 636.89,-380 642.89,-380"/>
<text text-anchor="middle" x="709.39" y="-797.2" font-family="Times,serif" font-size="11.00" fill="gray">Http</text>
</g>
<g id="clust10" class="cluster">
<title>cluster_\Imperium\Http\Parameters</title>
<path fill="none" stroke="gray" d="M664.39,-656C664.39,-656 754.39,-656 754.39,-656 760.39,-656 766.39,-662 766.39,-668 766.39,-668 766.39,-770 766.39,-770 766.39,-776 760.39,-782 754.39,-782 754.39,-782 664.39,-782 664.39,-782 658.39,-782 652.39,-776 652.39,-770 652.39,-770 652.39,-668 652.39,-668 652.39,-662 658.39,-656 664.39,-656"/>
<text text-anchor="middle" x="709.39" y="-769.2" font-family="Times,serif" font-size="11.00" fill="gray">Parameters</text>
</g>
<g id="clust11" class="cluster">
<title>cluster_\Imperium\Http\Response</title>
<path fill="none" stroke="gray" d="M650.89,-522C650.89,-522 767.89,-522 767.89,-522 773.89,-522 779.89,-528 779.89,-534 779.89,-534 779.89,-636 779.89,-636 779.89,-642 773.89,-648 767.89,-648 767.89,-648 650.89,-648 650.89,-648 644.89,-648 638.89,-642 638.89,-636 638.89,-636 638.89,-534 638.89,-534 638.89,-528 644.89,-522 650.89,-522"/>
<text text-anchor="middle" x="709.39" y="-635.2" font-family="Times,serif" font-size="11.00" fill="gray">Response</text>
</g>
<g id="clust12" class="cluster">
<title>cluster_\Imperium\Http\Request</title>
<path fill="none" stroke="gray" d="M661.39,-388C661.39,-388 757.39,-388 757.39,-388 763.39,-388 769.39,-394 769.39,-400 769.39,-400 769.39,-502 769.39,-502 769.39,-508 763.39,-514 757.39,-514 757.39,-514 661.39,-514 661.39,-514 655.39,-514 649.39,-508 649.39,-502 649.39,-502 649.39,-400 649.39,-400 649.39,-394 655.39,-388 661.39,-388"/>
<text text-anchor="middle" x="709.39" y="-501.2" font-family="Times,serif" font-size="11.00" fill="gray">Request</text>
</g>
<g id="clust13" class="cluster">
<title>cluster_\Imperium\Configuration</title>
<path fill="none" stroke="gray" d="M669.89,-818C669.89,-818 748.89,-818 748.89,-818 754.89,-818 760.89,-824 760.89,-830 760.89,-830 760.89,-960 760.89,-960 760.89,-966 754.89,-972 748.89,-972 748.89,-972 669.89,-972 669.89,-972 663.89,-972 657.89,-966 657.89,-960 657.89,-960 657.89,-830 657.89,-830 657.89,-824 663.89,-818 669.89,-818"/>
<text text-anchor="middle" x="709.39" y="-959.2" font-family="Times,serif" font-size="11.00" fill="gray">Configuration</text>
</g>
<g id="clust14" class="cluster">
<title>cluster_\Imperium\Configuration\Personalization</title>
<path fill="none" stroke="gray" d="M677.89,-872C677.89,-872 740.89,-872 740.89,-872 746.89,-872 752.89,-878 752.89,-884 752.89,-884 752.89,-932 752.89,-932 752.89,-938 746.89,-944 740.89,-944 740.89,-944 677.89,-944 677.89,-944 671.89,-944 665.89,-938 665.89,-932 665.89,-932 665.89,-884 665.89,-884 665.89,-878 671.89,-872 677.89,-872"/>
<text text-anchor="middle" x="709.39" y="-931.2" font-family="Times,serif" font-size="11.00" fill="gray">Personalization</text>
</g>
<g id="clust15" class="cluster">
<title>cluster_\Imperium\Environment</title>
<path fill="none" stroke="gray" d="M684.39,-184C684.39,-184 733.39,-184 733.39,-184 739.39,-184 745.39,-190 745.39,-196 745.39,-196 745.39,-244 745.39,-244 745.39,-250 739.39,-256 733.39,-256 733.39,-256 684.39,-256 684.39,-256 678.39,-256 672.39,-250 672.39,-244 672.39,-244 672.39,-196 672.39,-196 672.39,-190 678.39,-184 684.39,-184"/>
<text text-anchor="middle" x="708.89" y="-243.2" font-family="Times,serif" font-size="11.00" fill="gray">Environment</text>
</g>
<g id="clust16" class="cluster">
<title>cluster_\Imperium\Container</title>
<path fill="none" stroke="gray" d="M686.39,-104C686.39,-104 732.39,-104 732.39,-104 738.39,-104 744.39,-110 744.39,-116 744.39,-116 744.39,-164 744.39,-164 744.39,-170 738.39,-176 732.39,-176 732.39,-176 686.39,-176 686.39,-176 680.39,-176 674.39,-170 674.39,-164 674.39,-164 674.39,-116 674.39,-116 674.39,-110 680.39,-104 686.39,-104"/>
<text text-anchor="middle" x="709.39" y="-163.2" font-family="Times,serif" font-size="11.00" fill="gray">Container</text>
</g>
<g id="clust17" class="cluster">
<title>cluster_\Imperium\Exception</title>
<path fill="none" stroke="gray" d="M681.39,-24C681.39,-24 737.39,-24 737.39,-24 743.39,-24 749.39,-30 749.39,-36 749.39,-36 749.39,-84 749.39,-84 749.39,-90 743.39,-96 737.39,-96 737.39,-96 681.39,-96 681.39,-96 675.39,-96 669.39,-90 669.39,-84 669.39,-84 669.39,-36 669.39,-36 669.39,-30 675.39,-24 681.39,-24"/>
<text text-anchor="middle" x="709.39" y="-83.2" font-family="Times,serif" font-size="11.00" fill="gray">Exception</text>
</g>
<g id="clust18" class="cluster">
<title>cluster_Global\Symfony</title>
<path fill="none" stroke="gray" d="M458.9,-1106C458.9,-1106 543.99,-1106 543.99,-1106 549.99,-1106 555.99,-1112 555.99,-1118 555.99,-1118 555.99,-1238 555.99,-1238 555.99,-1244 549.99,-1250 543.99,-1250 543.99,-1250 458.9,-1250 458.9,-1250 452.9,-1250 446.9,-1244 446.9,-1238 446.9,-1238 446.9,-1118 446.9,-1118 446.9,-1112 452.9,-1106 458.9,-1106"/>
<text text-anchor="middle" x="501.44" y="-1237.2" font-family="Times,serif" font-size="11.00" fill="gray">Symfony</text>
</g>
<g id="clust19" class="cluster">
<title>cluster_Global\Symfony\Component</title>
<path fill="none" stroke="gray" d="M466.9,-1114C466.9,-1114 535.99,-1114 535.99,-1114 541.99,-1114 547.99,-1120 547.99,-1126 547.99,-1126 547.99,-1210 547.99,-1210 547.99,-1216 541.99,-1222 535.99,-1222 535.99,-1222 466.9,-1222 466.9,-1222 460.9,-1222 454.9,-1216 454.9,-1210 454.9,-1210 454.9,-1126 454.9,-1126 454.9,-1120 460.9,-1114 466.9,-1114"/>
<text text-anchor="middle" x="501.44" y="-1209.2" font-family="Times,serif" font-size="11.00" fill="gray">Component</text>
</g>
<g id="clust20" class="cluster">
<title>cluster_Global\Symfony\Component\Yaml</title>
<path fill="none" stroke="gray" d="M474.9,-1122C474.9,-1122 527.99,-1122 527.99,-1122 533.99,-1122 539.99,-1128 539.99,-1134 539.99,-1134 539.99,-1182 539.99,-1182 539.99,-1188 533.99,-1194 527.99,-1194 527.99,-1194 474.9,-1194 474.9,-1194 468.9,-1194 462.9,-1188 462.9,-1182 462.9,-1182 462.9,-1134 462.9,-1134 462.9,-1128 468.9,-1122 474.9,-1122"/>
<text text-anchor="middle" x="501.44" y="-1181.2" font-family="Times,serif" font-size="11.00" fill="gray">Yaml</text>
</g>
<!-- \\Imperium\\Database\\Model\\Model -->
<g id="node1" class="node">
<title>\\Imperium\\Database\\Model\\Model</title>
<polygon fill="none" stroke="black" points="528.44,-316 474.44,-316 474.44,-280 528.44,-280 528.44,-316"/>
<text text-anchor="middle" x="501.44" y="-295.2" font-family="Courier,monospace" font-size="11.00">Model</text>
</g>
<!-- \\Imperium\\Database\\Query\\Sql -->
<g id="node4" class="node">
<title>\\Imperium\\Database\\Query\\Sql</title>
<polygon fill="none" stroke="black" points="356,-316 302,-316 302,-280 356,-280 356,-316"/>
<text text-anchor="middle" x="329" y="-295.2" font-family="Courier,monospace" font-size="11.00">Sql</text>
</g>
<!-- \\Imperium\\Database\\Model\\Model&#45;&gt;\\Imperium\\Database\\Query\\Sql -->
<g id="edge1" class="edge">
<title>\\Imperium\\Database\\Model\\Model&#45;&gt;\\Imperium\\Database\\Query\\Sql</title>
<path fill="none" stroke="black" d="M474.19,-298C445.32,-298 398.77,-298 366.4,-298"/>
<polygon fill="none" stroke="black" points="366.01,-294.5 356.01,-298 366.01,-301.5 366.01,-294.5"/>
</g>
<!-- \\Imperium\\Database\\Connection\\Connect -->
<g id="node2" class="node">
<title>\\Imperium\\Database\\Connection\\Connect</title>
<polygon fill="none" stroke="black" points="104,-316 40,-316 40,-280 104,-280 104,-316"/>
<text text-anchor="middle" x="72" y="-295.2" font-family="Courier,monospace" font-size="11.00">Connect</text>
</g>
<!-- \\Imperium\\Database\\Found\\Search -->
<g id="node3" class="node">
<title>\\Imperium\\Database\\Found\\Search</title>
<polygon fill="none" stroke="black" points="737.89,-316 680.89,-316 680.89,-280 737.89,-280 737.89,-316"/>
<text text-anchor="middle" x="709.39" y="-295.2" font-family="Courier,monospace" font-size="11.00">Search</text>
</g>
<!-- \\Imperium\\Database\\Found\\Search&#45;&gt;\\Imperium\\Database\\Model\\Model -->
<g id="edge2" class="edge">
<title>\\Imperium\\Database\\Found\\Search&#45;&gt;\\Imperium\\Database\\Model\\Model</title>
<path fill="none" stroke="black" d="M680.61,-298C643.93,-298 579.24,-298 538.73,-298"/>
<polygon fill="none" stroke="black" points="538.48,-294.5 528.48,-298 538.48,-301.5 538.48,-294.5"/>
</g>
<!-- \\Imperium\\Database\\Table\\Table -->
<g id="node5" class="node">
<title>\\Imperium\\Database\\Table\\Table</title>
<polygon fill="none" stroke="black" points="230,-316 176,-316 176,-280 230,-280 230,-316"/>
<text text-anchor="middle" x="203" y="-295.2" font-family="Courier,monospace" font-size="11.00">Table</text>
</g>
<!-- \\Imperium\\Database\\Query\\Sql&#45;&gt;\\Imperium\\Database\\Table\\Table -->
<g id="edge4" class="edge">
<title>\\Imperium\\Database\\Query\\Sql&#45;&gt;\\Imperium\\Database\\Table\\Table</title>
<path fill="none" stroke="black" d="M301.7,-298C283.87,-298 260.05,-298 240.39,-298"/>
<polygon fill="none" stroke="black" points="240.26,-294.5 230.26,-298 240.26,-301.5 240.26,-294.5"/>
</g>
<!-- \\Imperium\\Database\\Table\\Table&#45;&gt;\\Imperium\\Database\\Connection\\Connect -->
<g id="edge8" class="edge">
<title>\\Imperium\\Database\\Table\\Table&#45;&gt;\\Imperium\\Database\\Connection\\Connect</title>
<path fill="none" stroke="black" d="M175.89,-298C158.22,-298 134.48,-298 114.27,-298"/>
<polygon fill="none" stroke="black" points="114.07,-294.5 104.07,-298 114.07,-301.5 114.07,-294.5"/>
</g>
<!-- \\Imperium\\Http\\Parameters\\UploadedFile -->
<g id="node6" class="node">
<title>\\Imperium\\Http\\Parameters\\UploadedFile</title>
<polygon fill="none" stroke="black" points="758.39,-754 660.39,-754 660.39,-718 758.39,-718 758.39,-754"/>
<text text-anchor="middle" x="709.39" y="-733.2" font-family="Courier,monospace" font-size="11.00">UploadedFile</text>
</g>
<!-- \\Imperium\\Http\\Parameters\\Bag -->
<g id="node7" class="node">
<title>\\Imperium\\Http\\Parameters\\Bag</title>
<polygon fill="none" stroke="black" points="736.39,-700 682.39,-700 682.39,-664 736.39,-664 736.39,-700"/>
<text text-anchor="middle" x="709.39" y="-679.2" font-family="Courier,monospace" font-size="11.00">Bag</text>
</g>
<!-- IteratorAggregate -->
<g id="node18" class="node">
<title>IteratorAggregate</title>
<ellipse fill="none" stroke="black" cx="501.44" cy="-1026" rx="73.39" ry="18"/>
<text text-anchor="middle" x="501.44" y="-1022.3" font-family="Times,serif" font-size="14.00" fill="gray">IteratorAggregate</text>
</g>
<!-- \\Imperium\\Http\\Parameters\\Bag&#45;&gt;IteratorAggregate -->
<g id="edge6" class="edge">
<title>\\Imperium\\Http\\Parameters\\Bag&#45;&gt;IteratorAggregate</title>
<path fill="none" stroke="black" stroke-dasharray="1,5" d="M682.15,-685.51C665.61,-688.96 644.82,-695.74 630.89,-709 545.46,-790.28 515.28,-936.2 506.04,-997.58"/>
<polygon fill="none" stroke="black" points="502.54,-997.29 504.59,-1007.68 509.47,-998.28 502.54,-997.29"/>
</g>
<!-- Countable -->
<g id="node19" class="node">
<title>Countable</title>
<ellipse fill="none" stroke="black" cx="501.44" cy="-1080" rx="46.59" ry="18"/>
<text text-anchor="middle" x="501.44" y="-1076.3" font-family="Times,serif" font-size="14.00" fill="gray">Countable</text>
</g>
<!-- \\Imperium\\Http\\Parameters\\Bag&#45;&gt;Countable -->
<g id="edge7" class="edge">
<title>\\Imperium\\Http\\Parameters\\Bag&#45;&gt;Countable</title>
<path fill="none" stroke="black" stroke-dasharray="1,5" d="M682.23,-684.32C665.06,-687.27 643.53,-693.94 630.89,-709 531.28,-827.63 673.21,-933.31 574.89,-1053 569.25,-1059.86 561.7,-1064.97 553.59,-1068.79"/>
<polygon fill="none" stroke="black" points="552.22,-1065.57 544.27,-1072.57 554.85,-1072.05 552.22,-1065.57"/>
</g>
<!-- \\Imperium\\Http\\Response\\RedirectResponse -->
<g id="node8" class="node">
<title>\\Imperium\\Http\\Response\\RedirectResponse</title>
<polygon fill="none" stroke="black" points="771.89,-620 646.89,-620 646.89,-584 771.89,-584 771.89,-620"/>
<text text-anchor="middle" x="709.39" y="-599.2" font-family="Courier,monospace" font-size="11.00">RedirectResponse</text>
</g>
<!-- \\Imperium\\Http\\Response\\Response -->
<g id="node9" class="node">
<title>\\Imperium\\Http\\Response\\Response</title>
<polygon fill="none" stroke="black" points="744.89,-566 673.89,-566 673.89,-530 744.89,-530 744.89,-566"/>
<text text-anchor="middle" x="709.39" y="-545.2" font-family="Courier,monospace" font-size="11.00">Response</text>
</g>
<!-- \\Imperium\\Http\\Request\\ServerRequest -->
<g id="node10" class="node">
<title>\\Imperium\\Http\\Request\\ServerRequest</title>
<polygon fill="none" stroke="black" points="761.39,-486 657.39,-486 657.39,-450 761.39,-450 761.39,-486"/>
<text text-anchor="middle" x="709.39" y="-465.2" font-family="Courier,monospace" font-size="11.00">ServerRequest</text>
</g>
<!-- \\Imperium\\Http\\Request\\Request -->
<g id="node11" class="node">
<title>\\Imperium\\Http\\Request\\Request</title>
<polygon fill="none" stroke="black" points="741.39,-432 677.39,-432 677.39,-396 741.39,-396 741.39,-432"/>
<text text-anchor="middle" x="709.39" y="-411.2" font-family="Courier,monospace" font-size="11.00">Request</text>
</g>
<!-- \\Imperium\\Configuration\\Personalization\\Imperium -->
<g id="node12" class="node">
<title>\\Imperium\\Configuration\\Personalization\\Imperium</title>
<polygon fill="none" stroke="black" points="744.89,-916 673.89,-916 673.89,-880 744.89,-880 744.89,-916"/>
<text text-anchor="middle" x="709.39" y="-895.2" font-family="Courier,monospace" font-size="11.00">Imperium</text>
</g>
<!-- Yaml -->
<g id="node17" class="node">
<title>Yaml</title>
<ellipse fill="none" stroke="black" cx="501.44" cy="-1148" rx="30.59" ry="18"/>
<text text-anchor="middle" x="501.44" y="-1144.3" font-family="Times,serif" font-size="14.00" fill="gray">Yaml</text>
</g>
<!-- \\Imperium\\Configuration\\Personalization\\Imperium&#45;&gt;Yaml -->
<g id="edge3" class="edge">
<title>\\Imperium\\Configuration\\Personalization\\Imperium&#45;&gt;Yaml</title>
<path fill="none" stroke="black" d="M702.89,-916.17C688.9,-959.29 647.81,-1068.47 574.89,-1126 565.31,-1133.56 553.15,-1138.53 541.55,-1141.79"/>
<polygon fill="none" stroke="black" points="540.45,-1138.46 531.57,-1144.24 542.12,-1145.25 540.45,-1138.46"/>
</g>
<!-- \\Imperium\\Configuration\\Config -->
<g id="node13" class="node">
<title>\\Imperium\\Configuration\\Config</title>
<polygon fill="none" stroke="black" points="737.89,-862 680.89,-862 680.89,-826 737.89,-826 737.89,-862"/>
<text text-anchor="middle" x="709.39" y="-841.2" font-family="Courier,monospace" font-size="11.00">Config</text>
</g>
<!-- \\Imperium\\Configuration\\Config&#45;&gt;Yaml -->
<g id="edge5" class="edge">
<title>\\Imperium\\Configuration\\Config&#45;&gt;Yaml</title>
<path fill="none" stroke="black" d="M680.67,-845.73C663.97,-848.25 643.55,-854.19 630.89,-868 551.59,-954.48 654.43,-1039.74 574.89,-1126 566.33,-1135.29 553.98,-1140.7 541.91,-1143.84"/>
<polygon fill="none" stroke="black" points="540.96,-1140.47 531.91,-1145.98 542.42,-1147.31 540.96,-1140.47"/>
</g>
<!-- \\Imperium\\Environment\\Env -->
<g id="node14" class="node">
<title>\\Imperium\\Environment\\Env</title>
<polygon fill="none" stroke="black" points="736.39,-228 682.39,-228 682.39,-192 736.39,-192 736.39,-228"/>
<text text-anchor="middle" x="709.39" y="-207.2" font-family="Courier,monospace" font-size="11.00">Env</text>
</g>
<!-- \\Imperium\\Container\\Ioc -->
<g id="node15" class="node">
<title>\\Imperium\\Container\\Ioc</title>
<polygon fill="none" stroke="black" points="736.39,-148 682.39,-148 682.39,-112 736.39,-112 736.39,-148"/>
<text text-anchor="middle" x="709.39" y="-127.2" font-family="Courier,monospace" font-size="11.00">Ioc</text>
</g>
<!-- \\Imperium\\Exception\\Kedavra -->
<g id="node16" class="node">
<title>\\Imperium\\Exception\\Kedavra</title>
<polygon fill="none" stroke="black" points="741.39,-68 677.39,-68 677.39,-32 741.39,-32 741.39,-68"/>
<text text-anchor="middle" x="709.39" y="-47.2" font-family="Courier,monospace" font-size="11.00">Kedavra</text>
</g>
<!-- Exception -->
<g id="node20" class="node">
<title>Exception</title>
<ellipse fill="none" stroke="black" cx="501.44" cy="-1276" rx="46.29" ry="18"/>
<text text-anchor="middle" x="501.44" y="-1272.3" font-family="Times,serif" font-size="14.00" fill="gray">Exception</text>
</g>
<!-- \\Imperium\\Exception\\Kedavra&#45;&gt;Exception -->
<g id="edge9" class="edge">
<title>\\Imperium\\Exception\\Kedavra&#45;&gt;Exception</title>
<path fill="none" stroke="black" d="M677.33,-61.69C660.52,-69.76 641.15,-82.26 630.89,-100 508.56,-311.49 669.97,-972.94 574.89,-1198 565.7,-1219.75 547.65,-1239.21 531.86,-1253.26"/>
<polygon fill="none" stroke="black" points="529.19,-1250.93 523.87,-1260.09 533.74,-1256.25 529.19,-1250.93"/>
</g>
</g>
</svg>
