<?xml version="1.0" encoding="UTF-8" standalone="no"?>
<!DOCTYPE svg PUBLIC "-//W3C//DTD SVG 1.1//EN"
 "http://www.w3.org/Graphics/SVG/1.1/DTD/svg11.dtd">
<!-- Generated by graphviz version 2.44.0 (0)
 -->
<!-- Title: G Pages: 1 -->
<svg width="326pt" height="544pt"
 viewBox="0.00 0.00 326.29 544.00" xmlns="http://www.w3.org/2000/svg" xmlns:xlink="http://www.w3.org/1999/xlink">
<g id="graph0" class="graph" transform="scale(1 1) rotate(0) translate(4 540)">
<title>G</title>
<polygon fill="white" stroke="transparent" points="-4,4 -4,-540 322.29,-540 322.29,4 -4,4"/>
<g id="clust1" class="cluster">
<title>cluster_Global</title>
<path fill="none" stroke="gray" d="M20,-8C20,-8 298.29,-8 298.29,-8 304.29,-8 310.29,-14 310.29,-20 310.29,-20 310.29,-516 310.29,-516 310.29,-522 304.29,-528 298.29,-528 298.29,-528 20,-528 20,-528 14,-528 8,-522 8,-516 8,-516 8,-20 8,-20 8,-14 14,-8 20,-8"/>
<text text-anchor="middle" x="159.15" y="-515.2" font-family="Times,serif" font-size="11.00" fill="gray">Global</text>
</g>
<g id="clust2" class="cluster">
<title>cluster_\Imperium</title>
<path fill="none" stroke="gray" d="M168.29,-16C168.29,-16 290.29,-16 290.29,-16 296.29,-16 302.29,-22 302.29,-28 302.29,-28 302.29,-488 302.29,-488 302.29,-494 296.29,-500 290.29,-500 290.29,-500 168.29,-500 168.29,-500 162.29,-500 156.29,-494 156.29,-488 156.29,-488 156.29,-28 156.29,-28 156.29,-22 162.29,-16 168.29,-16"/>
<text text-anchor="middle" x="229.29" y="-487.2" font-family="Times,serif" font-size="11.00" fill="gray">Imperium</text>
</g>
<g id="clust3" class="cluster">
<title>cluster_\Imperium\Http</title>
<path fill="none" stroke="gray" d="M176.29,-264C176.29,-264 282.29,-264 282.29,-264 288.29,-264 294.29,-270 294.29,-276 294.29,-276 294.29,-460 294.29,-460 294.29,-466 288.29,-472 282.29,-472 282.29,-472 176.29,-472 176.29,-472 170.29,-472 164.29,-466 164.29,-460 164.29,-460 164.29,-276 164.29,-276 164.29,-270 170.29,-264 176.29,-264"/>
<text text-anchor="middle" x="229.29" y="-459.2" font-family="Times,serif" font-size="11.00" fill="gray">Http</text>
</g>
<g id="clust4" class="cluster">
<title>cluster_\Imperium\Http\Parameters</title>
<path fill="none" stroke="gray" d="M184.29,-318C184.29,-318 274.29,-318 274.29,-318 280.29,-318 286.29,-324 286.29,-330 286.29,-330 286.29,-432 286.29,-432 286.29,-438 280.29,-444 274.29,-444 274.29,-444 184.29,-444 184.29,-444 178.29,-444 172.29,-438 172.29,-432 172.29,-432 172.29,-330 172.29,-330 172.29,-324 178.29,-318 184.29,-318"/>
<text text-anchor="middle" x="229.29" y="-431.2" font-family="Times,serif" font-size="11.00" fill="gray">Parameters</text>
</g>
<g id="clust5" class="cluster">
<title>cluster_\Imperium\Exception</title>
<path fill="none" stroke="gray" d="M201.29,-184C201.29,-184 257.29,-184 257.29,-184 263.29,-184 269.29,-190 269.29,-196 269.29,-196 269.29,-244 269.29,-244 269.29,-250 263.29,-256 257.29,-256 257.29,-256 201.29,-256 201.29,-256 195.29,-256 189.29,-250 189.29,-244 189.29,-244 189.29,-196 189.29,-196 189.29,-190 195.29,-184 201.29,-184"/>
<text text-anchor="middle" x="229.29" y="-243.2" font-family="Times,serif" font-size="11.00" fill="gray">Exception</text>
</g>
<g id="clust6" class="cluster">
<title>cluster_\Imperium\Database</title>
<path fill="none" stroke="gray" d="M206.29,-104C206.29,-104 252.29,-104 252.29,-104 258.29,-104 264.29,-110 264.29,-116 264.29,-116 264.29,-164 264.29,-164 264.29,-170 258.29,-176 252.29,-176 252.29,-176 206.29,-176 206.29,-176 200.29,-176 194.29,-170 194.29,-164 194.29,-164 194.29,-116 194.29,-116 194.29,-110 200.29,-104 206.29,-104"/>
<text text-anchor="middle" x="229.29" y="-163.2" font-family="Times,serif" font-size="11.00" fill="gray">Database</text>
</g>
<g id="clust7" class="cluster">
<title>cluster_\Imperium\Environment</title>
<path fill="none" stroke="gray" d="M204.29,-24C204.29,-24 253.29,-24 253.29,-24 259.29,-24 265.29,-30 265.29,-36 265.29,-36 265.29,-84 265.29,-84 265.29,-90 259.29,-96 253.29,-96 253.29,-96 204.29,-96 204.29,-96 198.29,-96 192.29,-90 192.29,-84 192.29,-84 192.29,-36 192.29,-36 192.29,-30 198.29,-24 204.29,-24"/>
<text text-anchor="middle" x="228.79" y="-83.2" font-family="Times,serif" font-size="11.00" fill="gray">Environment</text>
</g>
<!-- \\Imperium\\Http\\Parameters\\UploadedFile -->
<g id="node1" class="node">
<title>\\Imperium\\Http\\Parameters\\UploadedFile</title>
<polygon fill="none" stroke="black" points="278.29,-416 180.29,-416 180.29,-380 278.29,-380 278.29,-416"/>
<text text-anchor="middle" x="229.29" y="-395.2" font-family="Courier,monospace" font-size="11.00">UploadedFile</text>
</g>
<!-- \\Imperium\\Http\\Parameters\\Bag -->
<g id="node2" class="node">
<title>\\Imperium\\Http\\Parameters\\Bag</title>
<polygon fill="none" stroke="black" points="256.29,-362 202.29,-362 202.29,-326 256.29,-326 256.29,-362"/>
<text text-anchor="middle" x="229.29" y="-341.2" font-family="Courier,monospace" font-size="11.00">Bag</text>
</g>
<!-- \\Imperium\\Http\\Request -->
<g id="node3" class="node">
<title>\\Imperium\\Http\\Request</title>
<polygon fill="none" stroke="black" points="261.29,-308 197.29,-308 197.29,-272 261.29,-272 261.29,-308"/>
<text text-anchor="middle" x="229.29" y="-287.2" font-family="Courier,monospace" font-size="11.00">Request</text>
</g>
<!-- \\Imperium\\Exception\\Kedavra -->
<g id="node4" class="node">
<title>\\Imperium\\Exception\\Kedavra</title>
<polygon fill="none" stroke="black" points="261.29,-228 197.29,-228 197.29,-192 261.29,-192 261.29,-228"/>
<text text-anchor="middle" x="229.29" y="-207.2" font-family="Courier,monospace" font-size="11.00">Kedavra</text>
</g>
<!-- Exception -->
<g id="node7" class="node">
<title>Exception</title>
<ellipse fill="none" stroke="black" cx="62.15" cy="-210" rx="46.29" ry="18"/>
<text text-anchor="middle" x="62.15" y="-206.3" font-family="Times,serif" font-size="14.00" fill="gray">Exception</text>
</g>
<!-- \\Imperium\\Exception\\Kedavra&#45;&gt;Exception -->
<g id="edge1" class="edge">
<title>\\Imperium\\Exception\\Kedavra&#45;&gt;Exception</title>
<path fill="none" stroke="black" d="M197.23,-210C175.12,-210 144.82,-210 118.61,-210"/>
<polygon fill="none" stroke="black" points="118.42,-206.5 108.42,-210 118.42,-213.5 118.42,-206.5"/>
</g>
<!-- \\Imperium\\Database\\DB -->
<g id="node5" class="node">
<title>\\Imperium\\Database\\DB</title>
<polygon fill="none" stroke="black" points="256.29,-148 202.29,-148 202.29,-112 256.29,-112 256.29,-148"/>
<text text-anchor="middle" x="229.29" y="-127.2" font-family="Courier,monospace" font-size="11.00">DB</text>
</g>
<!-- \\Imperium\\Environment\\Env -->
<g id="node6" class="node">
<title>\\Imperium\\Environment\\Env</title>
<polygon fill="none" stroke="black" points="256.29,-68 202.29,-68 202.29,-32 256.29,-32 256.29,-68"/>
<text text-anchor="middle" x="229.29" y="-47.2" font-family="Courier,monospace" font-size="11.00">Env</text>
</g>
</g>
</svg>
