<?xml version="1.0" encoding="UTF-8" standalone="no"?>
<!DOCTYPE svg PUBLIC "-//W3C//DTD SVG 1.1//EN"
 "http://www.w3.org/Graphics/SVG/1.1/DTD/svg11.dtd">
<!-- Generated by graphviz version 2.44.0 (0)
 -->
<!-- Title: G Pages: 1 -->
<svg width="289pt" height="328pt"
 viewBox="0.00 0.00 289.29 328.00" xmlns="http://www.w3.org/2000/svg" xmlns:xlink="http://www.w3.org/1999/xlink">
<g id="graph0" class="graph" transform="scale(1 1) rotate(0) translate(4 324)">
<title>G</title>
<polygon fill="white" stroke="transparent" points="-4,4 -4,-324 285.29,-324 285.29,4 -4,4"/>
<g id="clust1" class="cluster">
<title>cluster_Global</title>
<path fill="none" stroke="gray" d="M20,-8C20,-8 261.29,-8 261.29,-8 267.29,-8 273.29,-14 273.29,-20 273.29,-20 273.29,-300 273.29,-300 273.29,-306 267.29,-312 261.29,-312 261.29,-312 20,-312 20,-312 14,-312 8,-306 8,-300 8,-300 8,-20 8,-20 8,-14 14,-8 20,-8"/>
<text text-anchor="middle" x="140.65" y="-299.2" font-family="Times,serif" font-size="11.00" fill="gray">Global</text>
</g>
<g id="clust2" class="cluster">
<title>cluster_\Imperium</title>
<path fill="none" stroke="gray" d="M181.29,-16C181.29,-16 253.29,-16 253.29,-16 259.29,-16 265.29,-22 265.29,-28 265.29,-28 265.29,-272 265.29,-272 265.29,-278 259.29,-284 253.29,-284 253.29,-284 181.29,-284 181.29,-284 175.29,-284 169.29,-278 169.29,-272 169.29,-272 169.29,-28 169.29,-28 169.29,-22 175.29,-16 181.29,-16"/>
<text text-anchor="middle" x="217.29" y="-271.2" font-family="Times,serif" font-size="11.00" fill="gray">Imperium</text>
</g>
<g id="clust3" class="cluster">
<title>cluster_\Imperium\Exception</title>
<path fill="none" stroke="gray" d="M189.29,-184C189.29,-184 245.29,-184 245.29,-184 251.29,-184 257.29,-190 257.29,-196 257.29,-196 257.29,-244 257.29,-244 257.29,-250 251.29,-256 245.29,-256 245.29,-256 189.29,-256 189.29,-256 183.29,-256 177.29,-250 177.29,-244 177.29,-244 177.29,-196 177.29,-196 177.29,-190 183.29,-184 189.29,-184"/>
<text text-anchor="middle" x="217.29" y="-243.2" font-family="Times,serif" font-size="11.00" fill="gray">Exception</text>
</g>
<g id="clust4" class="cluster">
<title>cluster_\Imperium\Database</title>
<path fill="none" stroke="gray" d="M194.29,-104C194.29,-104 240.29,-104 240.29,-104 246.29,-104 252.29,-110 252.29,-116 252.29,-116 252.29,-164 252.29,-164 252.29,-170 246.29,-176 240.29,-176 240.29,-176 194.29,-176 194.29,-176 188.29,-176 182.29,-170 182.29,-164 182.29,-164 182.29,-116 182.29,-116 182.29,-110 188.29,-104 194.29,-104"/>
<text text-anchor="middle" x="217.29" y="-163.2" font-family="Times,serif" font-size="11.00" fill="gray">Database</text>
</g>
<g id="clust5" class="cluster">
<title>cluster_\Imperium\Environment</title>
<path fill="none" stroke="gray" d="M192.29,-24C192.29,-24 241.29,-24 241.29,-24 247.29,-24 253.29,-30 253.29,-36 253.29,-36 253.29,-84 253.29,-84 253.29,-90 247.29,-96 241.29,-96 241.29,-96 192.29,-96 192.29,-96 186.29,-96 180.29,-90 180.29,-84 180.29,-84 180.29,-36 180.29,-36 180.29,-30 186.29,-24 192.29,-24"/>
<text text-anchor="middle" x="216.79" y="-83.2" font-family="Times,serif" font-size="11.00" fill="gray">Environment</text>
</g>
<!-- \\Imperium\\Exception\\Kedavra -->
<g id="node1" class="node">
<title>\\Imperium\\Exception\\Kedavra</title>
<polygon fill="none" stroke="black" points="249.29,-228 185.29,-228 185.29,-192 249.29,-192 249.29,-228"/>
<text text-anchor="middle" x="217.29" y="-207.2" font-family="Courier,monospace" font-size="11.00">Kedavra</text>
</g>
<!-- Exception -->
<g id="node4" class="node">
<title>Exception</title>
<ellipse fill="none" stroke="black" cx="62.15" cy="-210" rx="46.29" ry="18"/>
<text text-anchor="middle" x="62.15" y="-206.3" font-family="Times,serif" font-size="14.00" fill="gray">Exception</text>
</g>
<!-- \\Imperium\\Exception\\Kedavra&#45;&gt;Exception -->
<g id="edge1" class="edge">
<title>\\Imperium\\Exception\\Kedavra&#45;&gt;Exception</title>
<path fill="none" stroke="black" d="M184.93,-210C165.81,-210 140.82,-210 118.46,-210"/>
<polygon fill="none" stroke="black" points="118.41,-206.5 108.41,-210 118.41,-213.5 118.41,-206.5"/>
</g>
<!-- \\Imperium\\Database\\DB -->
<g id="node2" class="node">
<title>\\Imperium\\Database\\DB</title>
<polygon fill="none" stroke="black" points="244.29,-148 190.29,-148 190.29,-112 244.29,-112 244.29,-148"/>
<text text-anchor="middle" x="217.29" y="-127.2" font-family="Courier,monospace" font-size="11.00">DB</text>
</g>
<!-- \\Imperium\\Environment\\Env -->
<g id="node3" class="node">
<title>\\Imperium\\Environment\\Env</title>
<polygon fill="none" stroke="black" points="244.29,-68 190.29,-68 190.29,-32 244.29,-32 244.29,-68"/>
<text text-anchor="middle" x="217.29" y="-47.2" font-family="Courier,monospace" font-size="11.00">Env</text>
</g>
</g>
</svg>
